<svg xmlns="http://www.w3.org/2000/svg" viewBox="0 0 64 64">
  <defs>
    <linearGradient id="bg" x1="0" y1="0" x2="1" y2="1">
      <stop offset="0%" stop-color="#38bdf8"/>
      <stop offset="100%" stop-color="#0284c7"/>
    </linearGradient>
  </defs>
  <rect x="2" y="2" width="60" height="60" rx="16" fill="url(#bg)"/>
  <path d="M28 14h8a2 2 0 0 1 2 2v10h10a2 2 0 0 1 2 2v8a2 2 0 0 1-2 2H38v10a2 2 0 0 1-2 2h-8a2 2 0 0 1-2-2V38H16a2 2 0 0 1-2-2v-8a2 2 0 0 1 2-2h10V16a2 2 0 0 1 2-2z" fill="#ffffff"/>
</svg>